<?xml version="1.0" standalone="no"?>
<!DOCTYPE svg PUBLIC "-//W3C//DTD SVG 20010904//EN"
 "http://www.w3.org/TR/2001/REC-SVG-20010904/DTD/svg10.dtd">
<svg version="1.0" xmlns="http://www.w3.org/2000/svg"
 width="2480.000000pt" height="2480.000000pt" viewBox="0 0 2480.000000 2480.000000"
 preserveAspectRatio="xMidYMid meet">

<g transform="translate(0.000000,2480.000000) scale(0.100000,-0.100000)"
fill="#000000" stroke="none">
<path d="M0 12400 l0 -12400 12400 0 12400 0 0 12400 0 12400 -12400 0 -12400
0 0 -12400z m16575 10847 l1260 -3 95 -22 c149 -36 241 -63 286 -83 23 -10 46
-19 52 -19 17 0 178 -87 256 -138 85 -55 236 -204 294 -290 23 -34 42 -65 42
-69 0 -3 9 -24 19 -47 52 -111 78 -264 52 -304 -7 -11 -243 -12 -1382 -3
-1989 16 -4021 16 -4084 2 -27 -7 -96 -19 -153 -27 -57 -8 -112 -18 -121 -24
-10 -5 -42 -12 -72 -16 -30 -4 -65 -12 -79 -19 -14 -7 -43 -16 -65 -20 -21 -3
-72 -22 -111 -41 -40 -19 -86 -37 -103 -40 -17 -4 -36 -13 -42 -20 -6 -8 -18
-14 -26 -14 -9 0 -32 -9 -52 -20 -20 -11 -47 -24 -61 -30 -14 -6 -43 -21 -65
-35 -22 -13 -51 -30 -65 -37 -14 -7 -27 -16 -30 -20 -3 -4 -33 -25 -65 -46
-90 -58 -265 -236 -265 -270 0 -5 -6 -15 -14 -21 -19 -16 -66 -106 -66 -126 0
-8 -9 -32 -20 -52 -11 -21 -20 -54 -20 -75 0 -20 -5 -60 -11 -89 -16 -76 3
-184 42 -226 63 -71 188 -66 289 11 96 74 154 179 165 301 7 70 10 77 34 87
38 15 232 3 270 -16 16 -9 40 -16 52 -16 22 0 75 -22 164 -68 204 -105 356
-283 404 -473 47 -184 10 -530 -83 -775 -19 -52 -83 -177 -113 -224 -13 -19
-29 -43 -36 -54 -74 -114 -261 -276 -401 -350 -27 -14 -54 -30 -60 -35 -6 -5
-23 -12 -39 -16 -15 -4 -44 -16 -64 -26 -21 -10 -46 -19 -56 -19 -10 0 -30 -6
-45 -14 -15 -7 -47 -17 -72 -21 -25 -4 -70 -14 -100 -23 -45 -14 -100 -17
-305 -16 -170 0 -264 4 -294 13 -24 7 -76 19 -115 26 -91 18 -215 52 -230 64
-6 4 -24 11 -41 15 -73 17 -372 170 -425 218 -8 7 -35 27 -60 43 -64 42 -69
46 -200 177 -126 126 -217 251 -293 403 -63 127 -87 183 -87 203 0 9 -9 44
-19 77 -46 140 -56 243 -56 560 0 248 3 317 18 395 43 226 64 317 82 357 8 17
15 39 15 50 0 10 9 35 20 56 11 20 20 42 20 47 0 21 110 237 161 315 61 94
176 240 245 309 123 123 351 292 494 364 36 18 85 44 110 57 65 33 134 64 167
75 15 5 66 23 113 40 47 17 105 35 130 41 25 5 56 14 70 19 14 6 59 17 100 24
41 8 100 20 130 26 137 26 221 27 4515 17z m171 -1971 c19 -14 19 -95 21
-6708 1 -6315 -2 -7320 -26 -7513 -17 -133 -31 -237 -42 -300 -23 -134 -44
-241 -51 -251 -4 -6 -12 -42 -18 -79 -6 -38 -15 -74 -21 -81 -5 -6 -14 -38
-20 -70 -6 -33 -14 -63 -19 -69 -4 -5 -14 -32 -23 -60 -63 -208 -219 -537
-343 -723 -13 -20 -30 -45 -37 -56 -6 -10 -23 -33 -37 -52 -14 -18 -41 -55
-60 -81 -19 -26 -46 -58 -59 -72 -13 -15 -35 -42 -50 -61 -60 -79 -305 -312
-412 -393 -13 -9 -38 -28 -54 -41 -43 -34 -244 -169 -275 -184 -14 -7 -43 -23
-65 -36 -90 -53 -356 -181 -450 -215 -33 -12 -79 -31 -103 -42 -23 -10 -53
-19 -65 -19 -12 -1 -40 -9 -62 -20 -22 -11 -48 -19 -58 -20 -10 0 -34 -7 -55
-16 -20 -9 -64 -22 -97 -30 -95 -21 -227 -52 -270 -63 -22 -6 -69 -15 -105
-20 -36 -5 -87 -14 -115 -20 -27 -5 -88 -14 -135 -20 -47 -6 -119 -14 -160
-20 -100 -13 -482 -31 -650 -31 -192 0 -688 27 -730 40 -19 5 -92 14 -163 20
-70 5 -136 14 -146 19 -10 6 -61 14 -114 20 -52 5 -104 14 -115 20 -10 5 -54
15 -98 20 -43 6 -97 17 -119 25 -22 8 -55 15 -73 16 -18 0 -46 7 -62 15 -16 8
-57 19 -92 24 -35 5 -80 16 -100 25 -21 9 -47 16 -58 16 -12 0 -35 7 -51 16
-17 8 -52 19 -77 24 -26 5 -69 16 -97 26 -193 68 -267 95 -311 115 -23 11 -46
19 -52 19 -6 0 -23 7 -39 15 -15 7 -50 24 -78 36 -56 24 -242 115 -265 130 -8
5 -26 14 -40 20 -52 22 -245 144 -282 178 -23 21 -41 36 -118 99 -36 30 -69
60 -73 68 -4 8 -12 14 -17 14 -17 0 -335 325 -419 430 -19 23 -46 54 -61 68
-35 35 -229 292 -265 351 -5 9 -36 55 -68 102 -31 48 -57 89 -57 92 0 3 -11
23 -25 43 -42 62 -215 421 -215 446 0 8 -6 22 -14 33 -7 11 -17 36 -21 55 -4
19 -13 44 -20 55 -7 11 -16 37 -20 59 -3 21 -12 52 -20 70 -17 38 -41 137 -59
236 -8 41 -18 93 -24 115 -6 22 -14 72 -17 110 -4 39 -13 121 -21 183 -19 150
-18 471 1 647 8 77 20 183 26 235 5 52 18 124 29 160 38 132 52 176 65 205 7
17 28 68 45 115 18 47 36 89 41 94 5 6 9 16 9 24 0 18 144 310 176 357 13 20
24 38 24 41 0 3 8 17 18 32 11 15 32 47 48 72 157 244 376 465 614 622 48 31
99 62 115 69 17 7 37 18 45 24 8 6 44 24 80 39 36 15 76 33 90 40 14 8 40 17
58 21 18 4 45 13 60 21 15 8 32 14 39 14 7 0 33 7 58 16 25 8 83 22 128 29 45
8 105 20 132 27 71 17 727 16 815 -1 36 -7 99 -19 140 -26 116 -20 254 -60
345 -100 207 -91 306 -156 435 -285 117 -116 180 -209 258 -380 43 -94 102
-314 102 -380 0 -19 7 -75 15 -125 8 -49 15 -129 15 -177 0 -100 -34 -328 -56
-369 -8 -16 -14 -34 -14 -41 0 -40 -93 -179 -166 -249 -73 -69 -212 -159 -247
-159 -7 0 -25 -7 -41 -15 -16 -9 -59 -22 -95 -31 -36 -8 -86 -20 -111 -26 -25
-6 -115 -11 -200 -12 -153 -1 -155 -1 -203 28 -95 57 -132 125 -162 301 -7 44
-20 94 -29 110 -9 17 -16 35 -16 40 0 12 -23 44 -60 84 -43 46 -99 72 -182 84
-221 32 -396 -64 -495 -273 -45 -97 -63 -141 -63 -161 0 -11 -7 -36 -15 -56
-21 -50 -47 -277 -52 -453 -3 -116 0 -168 16 -259 12 -63 25 -119 30 -125 5
-6 12 -22 16 -36 4 -14 16 -36 26 -49 11 -13 19 -33 19 -44 0 -11 8 -38 19
-61 10 -23 24 -52 30 -66 24 -54 86 -157 120 -201 20 -26 45 -59 56 -75 61
-85 173 -197 260 -259 31 -22 68 -50 83 -61 28 -22 219 -134 228 -134 3 0 31
-12 62 -26 31 -14 71 -32 87 -39 76 -33 246 -89 305 -100 19 -4 55 -13 80 -21
64 -20 189 -44 310 -59 58 -7 133 -18 166 -24 167 -31 871 -29 1048 3 44 8
106 18 136 21 82 10 241 49 365 90 28 9 68 22 90 29 38 12 73 26 160 66 22 9
47 20 55 24 8 4 33 17 55 31 22 13 50 29 63 34 12 6 73 48 135 95 200 149 350
330 460 557 26 53 47 102 47 110 0 8 8 30 19 49 10 19 21 53 25 75 4 21 14 52
22 67 8 15 14 38 14 52 0 14 9 52 19 83 11 32 22 92 26 133 4 41 13 90 21 109
8 18 24 97 37 175 l22 141 -4 6666 c-2 5006 0 6671 8 6688 l12 21 1012 0 c859
0 1016 -2 1033 -14z m1894 -15696 c14 -7 54 -19 90 -25 36 -7 97 -25 135 -39
39 -15 86 -32 105 -38 19 -5 42 -16 50 -23 8 -7 26 -16 40 -20 14 -4 32 -13
40 -20 8 -7 26 -16 40 -20 14 -4 36 -16 50 -27 14 -11 54 -41 90 -67 149 -111
289 -279 343 -411 10 -25 22 -58 27 -75 5 -16 17 -50 27 -75 15 -40 17 -78 17
-315 -1 -233 -3 -274 -18 -302 -9 -18 -19 -54 -22 -80 -4 -27 -12 -57 -19 -69
-8 -12 -17 -39 -21 -60 -3 -21 -12 -46 -19 -54 -8 -8 -17 -28 -21 -45 -3 -16
-13 -37 -20 -45 -7 -8 -18 -28 -24 -44 -9 -25 -72 -122 -146 -226 -14 -19 -32
-39 -40 -43 -8 -4 -14 -13 -14 -19 0 -6 -16 -25 -35 -44 -19 -18 -35 -37 -35
-43 0 -5 -9 -12 -19 -16 -11 -3 -23 -15 -26 -26 -4 -10 -10 -19 -14 -19 -4 0
-33 -25 -66 -55 -32 -30 -62 -55 -66 -55 -4 0 -14 -8 -21 -18 -11 -15 -94 -79
-155 -119 -78 -53 -95 -63 -102 -63 -5 0 -14 -7 -21 -16 -8 -8 -27 -22 -44
-29 -32 -15 -52 -26 -97 -57 -15 -9 -39 -20 -54 -24 -15 -4 -29 -12 -32 -19
-2 -7 -20 -16 -39 -20 -19 -3 -38 -13 -41 -21 -3 -7 -15 -14 -28 -14 -12 0
-34 -9 -48 -20 -14 -11 -33 -20 -44 -20 -10 0 -31 -9 -48 -20 -16 -11 -37 -20
-45 -20 -8 0 -32 -9 -53 -20 -20 -11 -45 -20 -55 -20 -9 0 -34 -9 -55 -20 -20
-11 -45 -20 -55 -20 -9 0 -34 -9 -55 -20 -20 -11 -48 -20 -62 -20 -14 0 -42
-9 -62 -20 -21 -11 -53 -20 -71 -20 -18 0 -46 -7 -62 -15 -16 -8 -55 -19 -87
-24 -32 -5 -76 -16 -98 -25 -22 -8 -58 -15 -80 -16 -22 0 -50 -6 -61 -14 -11
-8 -58 -17 -104 -21 -47 -4 -97 -14 -111 -21 -16 -8 -82 -16 -163 -20 -95 -5
-139 -11 -147 -21 -13 -15 -75 -18 -83 -4 -4 5 -24 12 -45 16 -22 4 -45 12
-51 20 -11 13 -4 45 11 45 20 0 7 48 -21 75 -16 16 -30 32 -30 37 0 4 20 13
45 20 25 7 45 16 45 20 0 12 -36 28 -63 28 -30 0 -38 8 -27 29 5 9 11 24 14
33 3 11 18 18 43 21 21 2 -3 4 -53 5 -66 2 -95 -2 -103 -12 -6 -7 -42 -16 -85
-19 -40 -4 -99 -13 -132 -22 -32 -8 -81 -15 -109 -15 -27 0 -81 -7 -120 -15
-98 -21 -411 -29 -655 -17 -190 10 -260 21 -285 44 -13 11 12 28 43 28 12 0
39 9 59 20 21 11 47 20 59 20 12 0 27 7 34 15 7 8 28 17 49 21 20 4 52 15 71
25 19 11 40 19 47 19 7 0 30 9 50 20 21 11 47 20 59 20 12 0 27 6 33 14 7 8
27 18 44 22 18 3 43 15 56 25 13 11 30 19 37 19 8 0 31 9 51 20 21 11 44 20
51 20 7 0 15 7 18 15 4 8 15 15 25 15 25 0 168 75 245 129 32 22 63 41 68 41
4 0 21 11 38 25 16 14 36 25 44 25 8 0 14 4 14 8 0 5 15 16 33 25 17 10 50 28
72 42 22 13 49 28 60 33 12 6 27 17 34 26 7 9 17 16 22 16 8 0 73 39 104 63
15 11 103 72 165 114 61 42 135 97 194 146 21 18 61 49 90 70 109 82 323 272
446 396 173 175 300 320 300 341 0 7 9 23 20 37 11 14 20 38 20 53 0 15 7 33
15 40 7 6 17 33 20 58 3 26 12 67 20 92 7 25 16 90 20 145 6 103 -3 155 -28
155 -23 0 -121 53 -150 82 -15 15 -34 43 -42 61 -13 31 -12 40 2 78 22 57 80
130 140 178 51 40 151 91 178 91 9 0 26 5 37 11 40 22 115 28 298 25 131 -2
192 -6 210 -16z m-11797 -36 c23 -8 57 -20 76 -25 43 -14 108 -47 147 -76 47
-35 121 -135 139 -187 15 -43 14 -48 -4 -83 -25 -50 -43 -65 -132 -112 l-74
-39 -3 -114 c-2 -81 1 -124 12 -153 8 -22 18 -66 22 -97 3 -32 12 -62 19 -68
8 -6 16 -29 20 -50 4 -21 13 -44 21 -51 8 -6 14 -20 14 -29 0 -26 17 -44 275
-304 261 -263 265 -266 435 -402 237 -188 298 -233 490 -361 69 -46 134 -90
145 -98 10 -8 23 -15 27 -15 5 0 31 -16 59 -35 27 -20 60 -40 72 -46 12 -6 40
-21 62 -34 22 -13 54 -32 70 -41 17 -9 48 -31 71 -50 23 -18 53 -36 67 -39 14
-4 28 -13 31 -20 3 -8 21 -17 40 -21 20 -3 36 -10 36 -14 0 -5 17 -14 37 -21
21 -6 44 -18 51 -26 7 -7 20 -13 28 -13 8 0 33 -9 55 -20 21 -11 57 -29 78
-40 22 -11 45 -20 51 -20 11 0 101 -39 150 -65 14 -7 41 -16 60 -20 19 -4 42
-13 50 -20 8 -7 32 -15 54 -18 21 -3 46 -13 56 -22 9 -8 25 -15 35 -15 10 0
36 -9 59 -19 23 -11 58 -23 80 -26 21 -3 35 -9 32 -12 -3 -3 -54 -15 -113 -25
-135 -25 -613 -37 -733 -18 -41 6 -125 15 -185 19 -61 4 -120 13 -132 19 -12
7 -46 12 -75 12 -29 1 -89 8 -133 17 -97 19 -235 31 -242 21 -2 -5 5 -8 16 -8
21 0 25 -11 21 -58 -1 -15 7 -30 20 -39 19 -14 20 -17 6 -32 -9 -9 -15 -30
-15 -47 0 -16 -2 -40 -6 -54 -5 -21 -1 -28 31 -45 53 -28 53 -41 0 -49 -25 -4
-48 -11 -51 -17 -8 -12 -57 -11 -92 2 -15 6 -75 15 -132 20 -58 5 -130 16
-160 24 -31 9 -96 18 -146 22 -49 3 -97 11 -105 18 -8 7 -43 15 -78 19 -34 3
-76 13 -92 21 -16 8 -51 15 -77 15 -31 0 -59 7 -78 20 -16 11 -46 20 -65 20
-19 0 -53 9 -75 20 -22 11 -47 19 -56 20 -9 0 -36 9 -60 20 -24 11 -54 20 -67
20 -12 0 -39 9 -59 20 -21 11 -46 20 -56 20 -11 0 -31 7 -45 15 -15 8 -47 22
-72 31 -83 29 -108 40 -121 51 -8 6 -25 14 -39 18 -14 4 -39 16 -56 26 -17 11
-38 19 -47 19 -9 0 -22 6 -29 13 -7 7 -42 28 -78 45 -36 18 -83 44 -105 57
-22 14 -55 32 -72 40 -18 8 -33 20 -33 25 0 6 -6 10 -14 10 -8 0 -28 11 -44
25 -17 14 -33 25 -38 25 -4 0 -14 7 -23 15 -9 8 -56 47 -106 86 -49 39 -94 77
-98 85 -4 8 -12 14 -18 14 -8 0 -99 87 -99 95 0 2 -18 23 -40 47 -43 45 -160
194 -160 203 0 3 -18 31 -40 62 -22 32 -40 63 -40 69 0 6 -9 21 -20 34 -11 13
-20 33 -20 46 0 12 -7 29 -15 38 -8 8 -18 30 -22 48 -3 18 -12 44 -19 58 -8
14 -20 54 -28 90 -8 36 -19 83 -25 105 -5 22 -13 118 -16 215 -8 191 5 358 30
406 8 16 15 35 15 42 0 11 15 50 44 112 4 8 18 33 31 55 14 22 30 50 36 63 7
12 16 22 20 22 5 0 15 12 23 28 19 36 115 132 198 199 37 29 69 53 72 53 3 0
29 15 58 33 49 31 82 47 208 105 25 11 64 26 87 32 23 6 45 14 48 19 3 5 29
12 58 16 28 4 65 14 80 22 66 34 464 39 550 7z m5710 -2930 c20 -8 48 -14 61
-14 12 0 33 -9 46 -20 13 -11 29 -20 36 -20 7 0 44 -31 81 -68 83 -83 91 -94
105 -135 7 -17 17 -37 23 -44 16 -15 27 -157 19 -241 -5 -57 -24 -118 -53
-168 -27 -49 -85 -124 -96 -124 -8 0 -18 -6 -22 -14 -4 -7 -44 -33 -88 -57
l-80 -44 -135 0 c-112 0 -139 3 -160 18 -13 9 -32 17 -41 17 -9 0 -26 9 -39
20 -13 11 -27 20 -32 20 -20 0 -149 141 -154 170 -4 16 -12 31 -19 34 -7 2
-16 29 -20 58 -3 29 -11 67 -16 84 -12 39 13 229 34 252 8 9 18 28 22 41 13
42 148 181 176 181 9 0 28 9 42 20 14 11 34 20 46 20 11 0 38 6 58 14 21 8 47
16 58 18 33 7 108 -3 148 -18z m-1220 -367 c18 -8 45 -32 61 -55 23 -34 28
-51 27 -97 -1 -104 -62 -165 -166 -165 -52 0 -63 4 -101 35 -94 77 -77 234 30
281 40 17 108 18 149 1z m2582 -24 c79 -50 107 -149 61 -221 -33 -52 -55 -69
-108 -83 -79 -21 -153 13 -193 90 -22 43 -22 78 0 136 38 97 152 134 240 78z"/>
<path d="M16568 8140 c-5 -63 -8 -144 -8 -180 0 -38 -6 -77 -15 -94 -9 -18
-19 -80 -25 -162 -5 -74 -14 -143 -20 -153 -5 -11 -14 -62 -20 -113 -5 -52
-16 -110 -23 -129 -8 -19 -17 -61 -21 -93 -4 -33 -11 -65 -16 -71 -6 -7 -13
-34 -16 -61 -3 -27 -14 -75 -25 -107 -10 -31 -19 -67 -19 -80 0 -12 -7 -35
-15 -50 -8 -15 -17 -45 -21 -65 -3 -20 -12 -46 -19 -57 -7 -11 -16 -36 -20
-55 -4 -19 -16 -54 -26 -77 -11 -23 -19 -47 -19 -52 0 -6 -10 -32 -21 -58 -20
-46 -38 -86 -72 -163 -36 -83 -75 -161 -122 -243 -27 -49 -62 -110 -76 -135
-23 -42 -98 -157 -132 -204 -6 -10 -23 -34 -37 -53 -159 -226 -403 -497 -604
-670 -39 -33 -88 -77 -110 -97 -115 -105 -396 -312 -601 -443 -27 -17 -77 -49
-110 -71 -72 -46 -110 -69 -147 -86 -16 -7 -28 -16 -28 -20 0 -14 67 -8 80 7
7 8 17 15 23 15 6 0 29 9 51 19 262 121 396 188 416 206 9 8 20 15 25 15 11 0
158 86 216 126 25 17 55 35 67 38 12 4 22 12 22 17 0 5 8 13 18 16 38 15 211
144 337 252 117 100 292 273 355 350 63 77 231 303 255 343 64 108 89 154 135
248 28 58 60 123 70 145 10 22 27 61 39 86 12 25 21 54 21 63 0 9 9 33 20 53
11 21 20 48 20 60 0 13 9 40 20 60 11 21 20 47 20 58 0 11 9 46 20 78 11 31
20 68 20 82 0 14 7 42 15 61 8 20 19 74 25 121 6 47 15 94 20 103 5 9 14 71
19 137 6 67 16 134 21 149 6 15 15 111 20 213 5 102 14 254 20 336 6 83 10
229 8 325 l-3 175 -7 -115z"/>
<path d="M15170 6326 c-5 -14 -14 -26 -20 -26 -6 0 -13 -8 -17 -17 -3 -10 -24
-39 -45 -64 -21 -26 -38 -50 -38 -54 0 -16 -175 -218 -315 -364 -77 -79 -260
-236 -345 -294 -194 -132 -329 -209 -515 -292 -33 -14 -78 -35 -101 -46 -23
-10 -48 -19 -56 -19 -8 0 -19 -5 -24 -10 -6 -6 -32 -16 -60 -24 -27 -8 -62
-19 -79 -24 -65 -24 -133 -44 -190 -57 -33 -7 -78 -18 -100 -24 -89 -24 -201
-42 -415 -66 -267 -30 -290 -33 -290 -45 0 -4 19 -13 43 -19 23 -5 62 -16 87
-24 81 -26 276 -62 478 -88 114 -14 554 -8 595 9 15 7 69 17 120 23 50 6 99
15 108 20 9 4 41 13 70 18 59 10 106 25 242 72 126 45 332 144 442 213 98 61
276 203 305 242 14 19 33 36 43 39 9 4 17 12 17 20 0 8 9 17 20 20 11 3 20 13
20 21 0 8 7 17 15 20 8 4 15 15 15 25 0 11 6 22 14 25 21 8 27 33 14 57 -8 15
-11 90 -9 247 1 147 -2 235 -9 254 -7 20 -8 38 -1 55 22 59 22 79 1 86 -11 3
-20 11 -20 16 0 17 32 23 42 8 7 -10 8 -9 3 6 -5 11 -10 32 -13 48 -6 38 -20
43 -32 13z"/>
<path d="M14128 4258 c9 -9 15 -9 24 0 9 9 7 12 -12 12 -19 0 -21 -3 -12 -12z"/>
</g>
</svg>
